<svg xmlns="http://www.w3.org/2000/svg" viewBox="0 0 120 120" fill="none">
  <rect width="120" height="120" rx="16" fill="#F0FDF4"/>
  <!-- Belt path (loop) -->
  <!-- Large sprocket left -->
  <circle cx="38" cy="60" r="24" fill="#1F2937" stroke="#374151" stroke-width="2"/>
  <circle cx="38" cy="60" r="16" fill="#374151"/>
  <circle cx="38" cy="60" r="8" fill="#4B5563"/>
  <circle cx="38" cy="60" r="4" fill="#6B7280"/>
  <!-- Sprocket teeth -->
  <rect x="60" y="57" width="6" height="6" rx="1" fill="#111827"/>
  <rect x="14" y="57" width="6" height="6" rx="1" fill="#111827"/>
  <rect x="35" y="34" width="6" height="6" rx="1" fill="#111827"/>
  <rect x="35" y="80" width="6" height="6" rx="1" fill="#111827"/>
  <!-- Small sprocket right -->
  <circle cx="88" cy="60" r="16" fill="#1F2937" stroke="#374151" stroke-width="2"/>
  <circle cx="88" cy="60" r="10" fill="#374151"/>
  <circle cx="88" cy="60" r="5" fill="#4B5563"/>
  <circle cx="88" cy="60" r="2.5" fill="#6B7280"/>
  <!-- Small sprocket teeth -->
  <rect x="102" y="57" width="4" height="6" rx="1" fill="#111827"/>
  <rect x="74" y="57" width="4" height="6" rx="1" fill="#111827"/>
  <rect x="86" y="44" width="4" height="4" rx="1" fill="#111827"/>
  <rect x="86" y="72" width="4" height="4" rx="1" fill="#111827"/>
  <!-- Belt top -->
  <rect x="38" y="34" width="50" height="8" rx="4" fill="#22C55E"/>
  <rect x="38" y="34" width="50" height="8" rx="4" fill="url(#beltGrad)"/>
  <!-- Belt teeth top -->
  <rect x="44" y="38" width="4" height="6" rx="1" fill="#15803D"/>
  <rect x="52" y="38" width="4" height="6" rx="1" fill="#15803D"/>
  <rect x="60" y="38" width="4" height="6" rx="1" fill="#15803D"/>
  <rect x="68" y="38" width="4" height="6" rx="1" fill="#15803D"/>
  <rect x="76" y="38" width="4" height="6" rx="1" fill="#15803D"/>
  <!-- Belt bottom -->
  <rect x="38" y="78" width="50" height="8" rx="4" fill="url(#beltGrad)"/>
  <rect x="44" y="76" width="4" height="6" rx="1" fill="#15803D"/>
  <rect x="52" y="76" width="4" height="6" rx="1" fill="#15803D"/>
  <rect x="60" y="76" width="4" height="6" rx="1" fill="#15803D"/>
  <rect x="68" y="76" width="4" height="6" rx="1" fill="#15803D"/>
  <rect x="76" y="76" width="4" height="6" rx="1" fill="#15803D"/>
  <defs>
    <linearGradient id="beltGrad" x1="38" y1="34" x2="88" y2="86" gradientUnits="userSpaceOnUse">
      <stop stop-color="#4ADE80"/>
      <stop offset="1" stop-color="#16A34A"/>
    </linearGradient>
  </defs>
</svg>
